<svg width="64" height="64" viewBox="0 0 58 64" fill="none" xmlns="http://www.w3.org/2000/svg">
<path d="M29 12C27.344 12 26 13.344 26 15V16.3906C20.8264 17.7242 17 22.4096 17 28V40L13 44V46H25.5391C25.1869 46.6078 25.001 47.2976 25 48C25 49.0609 25.4214 50.0783 26.1716 50.8284C26.9217 51.5786 27.9391 52 29 52C30.0609 52 31.0783 51.5786 31.8284 50.8284C32.5786 50.0783 33 49.0609 33 48C32.9979 47.2972 32.8106 46.6074 32.457 46H45V44L41 40V28C41 22.4096 37.1736 17.7242 32 16.3906V15C32 13.344 30.656 12 29 12ZM29 20C33.412 20 37 23.588 37 28V40V41.6562L37.3438 42H20.6562L21 41.6562V40V28C21 23.588 24.588 20 29 20Z" fill="#F9BB04"/>
</svg>
