<svg width="59" height="59" viewBox="0 0 59 59" fill="none" xmlns="http://www.w3.org/2000/svg">
<g clip-path="url(#clip0_120_263)">
<path d="M29.5 0C13.2092 0 0 13.2092 0 29.5C0 45.7908 13.2092 59 29.5 59C45.7908 59 59 45.7908 59 29.5C59 13.2092 45.7908 0 29.5 0ZM24.2321 39.5089C24.2321 39.7987 23.9951 40.0357 23.7054 40.0357H20.5446C20.2549 40.0357 20.0179 39.7987 20.0179 39.5089V19.4911C20.0179 19.2013 20.2549 18.9643 20.5446 18.9643H23.7054C23.9951 18.9643 24.2321 19.2013 24.2321 19.4911V39.5089ZM38.9821 39.5089C38.9821 39.7987 38.7451 40.0357 38.4554 40.0357H35.2946C35.0049 40.0357 34.7679 39.7987 34.7679 39.5089V19.4911C34.7679 19.2013 35.0049 18.9643 35.2946 18.9643H38.4554C38.7451 18.9643 38.9821 19.2013 38.9821 19.4911V39.5089Z" fill="#F9BB04"/>
</g>
<defs>
<clipPath id="clip0_120_263">
<rect width="59" height="59" fill="white"/>
</clipPath>
</defs>
</svg>
