<svg width="28" height="28" viewBox="0 0 28 28" fill="none" xmlns="http://www.w3.org/2000/svg">
<path d="M26.3206 12.5491L15.9918 6.36945C15.7363 6.21398 15.4437 6.12997 15.1446 6.12622C14.8455 6.12247 14.5509 6.19911 14.2916 6.34813C14.0102 6.51199 13.7771 6.74741 13.6162 7.03047C13.4552 7.31353 13.372 7.63415 13.375 7.95977V12.2828L3.49188 6.36781C3.23636 6.21234 2.94377 6.12833 2.64468 6.12458C2.3456 6.12083 2.05099 6.19747 1.79165 6.34649C1.51025 6.51035 1.27723 6.74577 1.11624 7.02883C0.955265 7.31189 0.872061 7.63251 0.875085 7.95813V20.0441C0.871965 20.3698 0.955122 20.6905 1.11611 20.9737C1.27709 21.2568 1.51017 21.4923 1.79165 21.6563C2.05099 21.8053 2.3456 21.8819 2.64468 21.8782C2.94377 21.8744 3.23636 21.7904 3.49188 21.6349L13.375 15.7172V20.0419C13.3715 20.368 13.4545 20.6891 13.6155 20.9727C13.7765 21.2563 14.0098 21.4922 14.2916 21.6563C14.5509 21.8053 14.8455 21.8819 15.1446 21.8782C15.4437 21.8744 15.7363 21.7904 15.9918 21.6349L26.3206 15.4552C26.5662 15.3014 26.7686 15.0877 26.9089 14.8342C27.0493 14.5808 27.1229 14.2958 27.1229 14.006C27.1229 13.7163 27.0493 13.4313 26.9089 13.1778C26.7686 12.9243 26.5662 12.7106 26.3206 12.5568V12.5491Z" fill="#F9BB04"/>
</svg>
