<svg width="59" height="59" viewBox="0 0 59 59" fill="none" xmlns="http://www.w3.org/2000/svg">
<path d="M59 29.5C59 37.3239 55.892 44.8273 50.3597 50.3597C44.8273 55.892 37.3239 59 29.5 59C21.6761 59 14.1727 55.892 8.64035 50.3597C3.10803 44.8273 0 37.3239 0 29.5C0 21.6761 3.10803 14.1727 8.64035 8.64035C14.1727 3.10803 21.6761 0 29.5 0C37.3239 0 44.8273 3.10803 50.3597 8.64035C55.892 14.1727 59 21.6761 59 29.5ZM25.0381 18.7804C24.7624 18.5841 24.438 18.4675 24.1005 18.4433C23.7629 18.4192 23.4252 18.4884 23.1243 18.6434C22.8235 18.7984 22.5711 19.0332 22.3948 19.3221C22.2186 19.611 22.1252 19.9428 22.125 20.2812V38.7188C22.1252 39.0572 22.2186 39.389 22.3948 39.6779C22.5711 39.9668 22.8235 40.2016 23.1243 40.3566C23.4252 40.5116 23.7629 40.5808 24.1005 40.5567C24.438 40.5325 24.7624 40.4159 25.0381 40.2196L37.9444 31.0008C38.1834 30.8303 38.3782 30.6051 38.5126 30.344C38.647 30.083 38.7172 29.7936 38.7172 29.5C38.7172 29.2064 38.647 28.917 38.5126 28.656C38.3782 28.3949 38.1834 28.1697 37.9444 27.9992L25.0381 18.7804Z" fill="#F9BB04"/>
</svg>
