<svg width="29" height="28" viewBox="0 0 29 28" fill="none" xmlns="http://www.w3.org/2000/svg">
<path d="M1.7396 12.5491L12.4373 6.36945C12.702 6.21398 13.005 6.12997 13.3148 6.12622C13.6245 6.12247 13.9297 6.19911 14.1983 6.34813C14.4897 6.51199 14.7311 6.74741 14.8978 7.03047C15.0645 7.31353 15.1507 7.63415 15.1476 7.95977V12.2828L25.3837 6.36781C25.6483 6.21234 25.9514 6.12833 26.2611 6.12458C26.5709 6.12083 26.876 6.19747 27.1446 6.34649C27.4361 6.51035 27.6774 6.74577 27.8441 7.02883C28.0109 7.31189 28.0971 7.63251 28.0939 7.95813V20.0441C28.0972 20.3698 28.0111 20.6905 27.8444 20.9737C27.6776 21.2569 27.4362 21.4924 27.1446 21.6563C26.876 21.8053 26.5709 21.8819 26.2611 21.8782C25.9514 21.8744 25.6483 21.7904 25.3837 21.6349L15.1476 15.7172V20.0419C15.1513 20.368 15.0654 20.6892 14.8986 20.9728C14.7318 21.2564 14.4902 21.4922 14.1983 21.6563C13.9297 21.8053 13.6245 21.8819 13.3148 21.8782C13.005 21.8744 12.702 21.7904 12.4373 21.6349L1.7396 15.4552C1.48529 15.3014 1.27562 15.0877 1.13028 14.8342C0.98494 14.5808 0.908691 14.2958 0.908691 14.006C0.908691 13.7163 0.98494 13.4313 1.13028 13.1778C1.27562 12.9243 1.48529 12.7106 1.7396 12.5568V12.5491Z" fill="#F9BB04"/>
</svg>
