<svg width="64" height="64" viewBox="0 0 64 64" fill="none" xmlns="http://www.w3.org/2000/svg">
<path d="M32 12C24 12 12 18 12 48H21.457C24.2772 50.4816 27.9631 52 32 52C36.0369 52 39.7228 50.4816 42.543 48H52C52 18 40 12 32 12ZM32 16C35.338 16 41.7435 17.5005 45.3555 28.0625C43.9355 26.7805 42.058 26 40 26H24C21.942 26 20.0645 26.7805 18.6445 28.0625C22.2565 17.5005 28.662 16 32 16ZM24 30H40C42.21 30 44 31.79 44 34V36C44 42.6511 38.6511 48 32 48C25.3489 48 20 42.6511 20 36V34C20 31.79 21.79 30 24 30Z" fill="#F9BB04"/>
</svg>
