<svg width="32" height="32" viewBox="-2 -2 32 32" fill="none" xmlns="http://www.w3.org/2000/svg">
  <rect x="-2" y="-2" width="32" height="32" fill="transparent" />

  <path d="M13.3332 24C15.6998 23.9995 17.9982 23.2072 19.8625 21.7493L25.7238 27.6106L27.6092 25.7253L21.7478 19.864C23.2065 17.9995 23.9993 15.7005 23.9998 13.3333C23.9998 7.45196 19.2145 2.66663 13.3332 2.66663C7.45184 2.66663 2.6665 7.45196 2.6665 13.3333C2.6665 19.2146 7.45184 24 13.3332 24ZM13.3332 5.33329C17.7452 5.33329 21.3332 8.92129 21.3332 13.3333C21.3332 17.7453 17.7452 21.3333 13.3332 21.3333C8.92117 21.3333 5.33317 17.7453 5.33317 13.3333C5.33317 8.92129 8.92117 5.33329 13.3332 5.33329Z" fill="#F9BB04"/>
</svg>
