<svg width="51" height="51" viewBox="0 0 51 51" fill="none" xmlns="http://www.w3.org/2000/svg">
<path d="M45.5304 23.5769L9.40536 6.57687C9.04163 6.40478 8.63648 6.3396 8.23713 6.38895C7.83778 6.43829 7.46068 6.60012 7.14978 6.85556C6.83888 7.11101 6.60698 7.44956 6.48111 7.83175C6.35524 8.21395 6.34059 8.62404 6.43886 9.01424L10.5592 25.5L6.43886 41.9857C6.33967 42.3761 6.35368 42.7866 6.47926 43.1693C6.60483 43.552 6.83678 43.891 7.14796 44.1466C7.45915 44.4023 7.8367 44.5641 8.23646 44.6131C8.63623 44.662 9.04167 44.5961 9.40536 44.4231L45.5304 27.4231C45.8954 27.2515 46.2041 26.9795 46.4203 26.639C46.6365 26.2984 46.7514 25.9034 46.7514 25.5C46.7514 25.0966 46.6365 24.7015 46.4203 24.361C46.2041 24.0204 45.8954 23.7485 45.5304 23.5769ZM11.6472 38.6686L13.4301 31.535L25.5001 25.5L13.4301 19.465L11.6472 12.3314L39.6335 25.5L11.6472 38.6686Z" fill="#F9BB04"/>
</svg>
